<?xml version="1.0" encoding="iso-8859-1"?>
<!-- Generator: Adobe Illustrator 19.0.0, SVG Export Plug-In . SVG Version: 6.00 Build 0)  -->
<svg version="1.1" id="Capa_1" xmlns="http://www.w3.org/2000/svg" xmlns:xlink="http://www.w3.org/1999/xlink" x="0px" y="0px"
	 viewBox="0 0 512 512" style="enable-background:new 0 0 512 512;" xml:space="preserve">
<path style="fill:#EAC092;" d="M404.66,186.147V106.86c-45.161-1.992-32.13-9.972-110.706-45.301
	c-10.008-3.937-33.108-10.386-57.85,0.984c-0.013,0.006-0.035,0.015-0.049,0.02L81.69,117.834c-1.576,0.725-5.151,2.578-9.007,5.57"
	/>
<g>
	<polyline style="fill:#EAECF0;" points="215.654,123.404 31.973,123.404 31.973,317.113 314.097,317.113 314.097,231.049 	"/>
	<polyline style="fill:#EAECF0;" points="314.097,152.818 314.097,123.404 215.674,123.404 	"/>
</g>
<polyline style="fill:#3688C8;" points="184.674,158.034 31.973,158.034 31.973,196.082 245.077,196.082 "/>
<path style="fill:#FEDBAB;" d="M314.097,153.309l-90.362-28.774c-15.663-4.454-31.97,4.633-36.424,20.296l0,0
	c-4.454,15.663,4.633,31.97,22.58,38.63l79.618,27.022c0.001,0.001,16.995,27.76,57.472,27.76c25.556,0,47.588-20.656,57.679-38.737
	v-36.099"/>
<polyline style="fill:#26CFAD;" points="26.66,404.979 26.66,455.81 385.952,455.81 385.952,404.979 "/>
<polyline style="fill:#00B192;" points="385.952,404.979 385.952,354.148 26.66,354.148 26.66,404.979 271.667,404.979 "/>
<path style="fill:#ED7161;" d="M233.23,233.486c-5.591-4.392-12.641-7.011-20.302-7.011c-18.166,0-32.892,14.726-32.892,32.892
	s14.726,32.892,32.892,32.892c7.661,0,14.711-2.619,20.302-7.011"/>
<circle style="fill:#FFD36C;" cx="254.53" cy="259.37" r="32.892"/>
<rect x="61.16" y="234.52" style="fill:#BBB8C7;" width="83.35" height="49.7"/>
<path d="M144.514,294.217H61.165c-5.522,0-10-4.477-10-10v-49.7c0-5.523,4.478-10,10-10h83.349c5.522,0,10,4.477,10,10v49.7
	C154.514,289.74,150.036,294.217,144.514,294.217z M71.165,274.217h63.349v-29.7H71.165V274.217z"/>
<path d="M349.25,174.316c-0.65,0-1.31-0.07-1.95-0.2c-0.64-0.13-1.27-0.32-1.87-0.57c-0.61-0.25-1.189-0.56-1.729-0.92
	c-0.551-0.36-1.061-0.78-1.521-1.24s-0.88-0.98-1.24-1.52c-0.37-0.55-0.67-1.13-0.92-1.73c-0.25-0.6-0.45-1.23-0.569-1.87
	c-0.131-0.65-0.2-1.3-0.2-1.96c0-0.65,0.069-1.3,0.2-1.95c0.119-0.64,0.319-1.27,0.569-1.87s0.55-1.18,0.92-1.73
	c0.36-0.54,0.78-1.05,1.24-1.51c0.46-0.47,0.97-0.88,1.521-1.25c0.54-0.36,1.119-0.67,1.729-0.92c0.601-0.25,1.23-0.44,1.87-0.57
	c1.29-0.26,2.61-0.26,3.9,0c0.64,0.13,1.27,0.32,1.88,0.57c0.6,0.25,1.18,0.56,1.72,0.92c0.55,0.37,1.06,0.78,1.52,1.25
	c1.86,1.85,2.931,4.43,2.931,7.06c0,0.66-0.06,1.31-0.19,1.96c-0.13,0.64-0.33,1.27-0.58,1.87c-0.25,0.6-0.55,1.18-0.91,1.73
	c-0.369,0.54-0.789,1.06-1.25,1.52c-0.46,0.46-0.97,0.88-1.52,1.24c-0.54,0.36-1.12,0.67-1.72,0.92c-0.61,0.25-1.24,0.44-1.88,0.57
	C350.56,174.246,349.899,174.316,349.25,174.316z"/>
<rect x="404.66" y="93.34" style="fill:#EAECF0;" width="37.883" height="107.44"/>
<rect x="442.54" y="74.71" style="fill:#3688C8;" width="59.46" height="126.08"/>
<path d="M254.531,216.475c-7.533,0-14.619,1.953-20.778,5.378c-6.328-3.534-13.417-5.378-20.826-5.378
	c-23.65,0-42.892,19.241-42.892,42.892s19.241,42.892,42.892,42.892c7.408,0,14.497-1.843,20.826-5.378
	c6.159,3.425,13.245,5.378,20.778,5.378c23.65,0,42.892-19.241,42.892-42.892C297.423,235.717,278.182,216.475,254.531,216.475z
	 M212.928,282.259c-12.622,0-22.892-10.27-22.892-22.892c0-12.623,10.27-22.892,22.892-22.892c1.708,0,3.383,0.183,5.007,0.543
	c-3.992,6.512-6.295,14.167-6.295,22.349c0,8.182,2.303,15.836,6.295,22.349C216.311,282.076,214.635,282.259,212.928,282.259z
	 M254.531,282.259c-12.622,0-22.892-10.27-22.892-22.892c0-12.623,10.27-22.892,22.892-22.892c12.622,0,22.892,10.269,22.892,22.892
	S267.153,282.259,254.531,282.259z"/>
<path d="M502,64.71h-59.457c-5.522,0-10,4.477-10,10v8.634h-27.884c-5.523,0-10,4.477-10,10v2.878
	c-16.254-1.419-21.6-4.501-36.527-13.109c-11.48-6.62-28.83-16.625-60.077-30.674c-0.145-0.065-0.291-0.127-0.439-0.185
	c-10.169-4.001-36.823-11.876-65.299,1.027L78.319,108.419c-0.273,0.098-0.542,0.208-0.806,0.329
	c-1.33,0.611-4.405,2.132-8.085,4.656H31.974c-5.522,0-10,4.477-10,10v193.71c0,5.523,4.478,10,10,10h282.123
	c5.522,0,10-4.477,10-10v-71.757c6.756,1.79,14.369,2.887,22.885,2.887c26.124,0,49.235-17.922,62.458-37.457H502
	c5.522,0,10-4.477,10-10V74.71C512,69.187,507.522,64.71,502,64.71z M41.974,133.404L41.974,133.404c0.018,0,0,0,0.018,0h139.336
	c-1.525,2.686-2.755,5.593-3.636,8.692c-0.563,1.98-0.965,3.964-1.214,5.938H41.974V133.404z M41.974,168.034h137.305
	c2.949,6.957,7.913,13.194,14.517,18.047H41.974V168.034z M304.097,307.113H41.974V206.082h203.104c0.111,0,0.222-0.003,0.332-0.006
	l37.855,12.848c3.248,4.191,10.028,11.719,20.833,18.096v70.093H304.097z M394.659,196.805
	c-9.48,15.536-27.862,31.439-47.678,31.439c-11.48,0-20.725-2.522-27.958-5.897c-0.391-0.222-0.799-0.418-1.22-0.587
	c-13.33-6.6-19.415-15.944-19.782-16.524c-1.222-1.98-3.096-3.474-5.299-4.221l-79.477-26.975
	c-12.691-4.764-19.398-15.634-16.317-26.473c2.926-10.289,13.638-16.299,23.936-13.45l90.198,28.722
	c5.259,1.678,10.887-1.23,12.563-6.494c0.353-1.107,0.501-2.23,0.469-3.329c0.001-0.066,0.003-0.131,0.003-0.197v-29.414
	c0-5.523-4.478-10-10-10h-98.423c-0.003,0-0.005,0-0.008,0c-0.004,0-0.008,0-0.012,0h-91.925L239.426,71.98
	c0.073-0.026,0.146-0.053,0.219-0.081c0.023-0.009,0.094-0.037,0.115-0.045c0.176-0.069,0.349-0.143,0.52-0.221
	c21.435-9.851,41.811-3.955,49.799-0.849c30.183,13.581,46.293,22.87,58.063,29.657c16.364,9.436,24.249,13.983,46.518,15.823
	L394.659,196.805L394.659,196.805z M304.097,139.63l-19.554-6.227h19.554V139.63z M432.543,190.787H414.66l-0.001-87.443
	c0-0.027,0,0.027,0,0l0,0h17.884V190.787z M492,190.787h-39.457V84.71H492V190.787z"/>
<path d="M402.612,445.81h-6.66v-91.663c0-5.523-4.477-10-10-10H26.66c-5.523,0-10,4.477-10,10v91.663H10c-5.523,0-10,4.477-10,10
	s4.477,10,10,10h392.612c5.522,0,10-4.477,10-10S408.135,445.81,402.612,445.81z M375.952,445.81H36.66v-30.831h235.007
	c5.523,0,10-4.477,10-10s-4.477-10-10-10H36.66v-30.831h339.292V445.81z"/>
<path d="M468.001,276.215h-85c-5.523,0-10-4.477-10-10s4.477-10,10-10h85c5.522,0,10,4.477,10,10S473.523,276.215,468.001,276.215z"
	/>
<path d="M432.452,311.604h-85c-5.522,0-10-4.477-10-10s4.478-10,10-10h85c5.523,0,10,4.477,10,10S437.975,311.604,432.452,311.604z"
	/>
<path d="M314.1,414.976c-0.66,0-1.31-0.06-1.96-0.19c-0.64-0.13-1.27-0.32-1.87-0.57s-1.18-0.56-1.72-0.92
	c-0.55-0.37-1.06-0.78-1.52-1.25c-0.471-0.46-0.881-0.97-1.25-1.52c-0.36-0.54-0.671-1.12-0.921-1.72
	c-0.25-0.61-0.44-1.23-0.569-1.87c-0.13-0.65-0.19-1.31-0.19-1.96s0.061-1.31,0.19-1.95c0.13-0.64,0.319-1.27,0.569-1.87
	s0.56-1.19,0.921-1.73c0.369-0.55,0.779-1.06,1.25-1.52c0.46-0.46,0.97-0.88,1.52-1.24c0.54-0.36,1.12-0.67,1.72-0.92
	c0.601-0.25,1.23-0.44,1.87-0.57c1.29-0.26,2.62-0.26,3.91,0c0.64,0.13,1.27,0.32,1.87,0.57s1.19,0.56,1.73,0.92
	c0.551,0.36,1.061,0.78,1.52,1.24c0.46,0.46,0.88,0.97,1.24,1.52c0.359,0.54,0.67,1.12,0.92,1.73c0.25,0.6,0.439,1.23,0.569,1.87
	c0.131,0.64,0.19,1.3,0.19,1.95c0,0.66-0.06,1.31-0.19,1.96c-0.13,0.64-0.319,1.27-0.569,1.87s-0.561,1.18-0.92,1.72
	c-0.36,0.55-0.78,1.06-1.24,1.52c-0.46,0.47-0.97,0.88-1.52,1.25c-0.54,0.36-1.13,0.67-1.73,0.92c-0.601,0.25-1.23,0.44-1.87,0.57
	C315.399,414.916,314.75,414.976,314.1,414.976z"/>
<g>
</g>
<g>
</g>
<g>
</g>
<g>
</g>
<g>
</g>
<g>
</g>
<g>
</g>
<g>
</g>
<g>
</g>
<g>
</g>
<g>
</g>
<g>
</g>
<g>
</g>
<g>
</g>
<g>
</g>
</svg>
