<?xml version="1.0" encoding="iso-8859-1"?>
<!-- Generator: Adobe Illustrator 19.0.0, SVG Export Plug-In . SVG Version: 6.00 Build 0)  -->
<svg version="1.1" id="Capa_1" xmlns="http://www.w3.org/2000/svg" xmlns:xlink="http://www.w3.org/1999/xlink" x="0px" y="0px"
	 viewBox="0 0 512 512" style="enable-background:new 0 0 512 512;" xml:space="preserve">
<path style="fill:#EF938F;" d="M189.554,50V30c0-11.046-8.954-20-20-20l0,0h-60c11.046,0,20,8.954,20,20v20H189.554z"/>
<path style="fill:#EF6C6A;" d="M89.554,90V30c0-11.046,8.954-20,20-20l0,0c11.046,0,20,8.954,20,20v20L89.554,90z"/>
<rect x="307.583" y="89.996" transform="matrix(-0.866 0.5 -0.5 -0.866 760.9127 96.0989)" style="fill:#FAB83F;" width="119.997" height="119.997"/>
<rect x="317.594" y="281.63" transform="matrix(0.7071 0.7071 -0.7071 0.7071 352.163 -166.9375)" style="fill:#F7812F;" width="119.999" height="119.999"/>
<rect x="129.55" y="50" style="fill:#EF938F;" width="60" height="452"/>
<rect x="49.554" y="50" style="fill:#69CBEF;" width="340" height="412"/>
<rect x="49.554" y="50" style="fill:#00AEEF;" width="40" height="412"/>
<path style="fill:#EFEFEF;" d="M339.554,170c0,22.091-17.909,40-40,40h-120c-22.091,0-40-17.909-40-40v-40c0-22.091,17.909-40,40-40
	h120c22.091,0,40,17.909,40,40V170z"/>
<path d="M179.555,220h120c27.57,0,50-22.43,50-50v-40c0-27.57-22.43-50-50-50h-120c-27.57,0-50,22.43-50,50v40
	C129.555,197.57,151.984,220,179.555,220z M149.555,130c0-16.542,13.458-30,30-30h120c16.542,0,30,13.458,30,30v40
	c0,16.542-13.458,30-30,30h-120c-16.542,0-30-13.458-30-30V130z"/>
<path d="M209.555,140h60c5.522,0,10-4.478,10-10s-4.478-10-10-10h-60c-5.522,0-10,4.478-10,10S204.032,140,209.555,140z"/>
<path d="M179.55,180h80c5.52,0,10-4.49,10-10s-4.48-10-10-10h-80c-5.51,0-9.99,4.49-9.99,10S174.04,180,179.55,180z"/>
<path d="M299.55,180c5.52,0,10-4.49,10-10s-4.48-10-10-10c-5.51,0-10,4.49-10,10S294.04,180,299.55,180z"/>
<path d="M469.516,334.557l-69.962-69.962v-52.219l55-31.754c4.783-2.762,6.422-8.877,3.66-13.66l-58.66-101.603V50
	c0-5.522-4.478-10-10-10h-190V30c0-16.542-13.458-30-30-30h-60c-16.542,0-30,13.458-30,30v10h-30c-5.522,0-10,4.478-10,10v412
	c0,5.522,4.478,10,10,10h70v30c0,5.522,4.478,10,10,10h60c5.522,0,10-4.478,10-10v-30h190c5.522,0,10-4.478,10-10v-43.338
	l69.962-69.963C473.422,344.794,473.422,338.462,469.516,334.557z M399.555,105.359l36.34,62.943l-36.34,20.981V105.359z
	 M79.555,452h-20V60h20V452z M169.555,20c5.514,0,10,4.486,10,10v10h-40V30c0-3.505-0.604-6.871-1.714-10H169.555z M99.555,30
	c0-5.514,4.486-10,10-10s10,4.486,10,10v10h-20V30z M179.555,492h-40v-20h40V492z M379.555,452h-280V60h280V452z M399.555,390.377
	V292.88l48.749,48.748L399.555,390.377z"/>
<path d="M339.555,382v30h-30c-5.522,0-10,4.478-10,10s4.478,10,10,10h40c5.522,0,10-4.478,10-10v-40c0-5.522-4.478-10-10-10
	C344.033,372,339.555,376.478,339.555,382z"/>
<path d="M129.555,432h40c5.522,0,10-4.478,10-10s-4.478-10-10-10h-30v-30c0-5.522-4.478-10-10-10s-10,4.478-10,10v40
	C119.555,427.522,124.032,432,129.555,432z"/>
<path d="M239.555,326c-5.514,0-10-4.486-10-10s4.486-10,10-10c2.666,0,5.175,1.037,7.063,2.922c3.91,3.898,10.24,3.893,14.143-0.018
	c3.9-3.91,3.893-10.241-0.018-14.143c-3.214-3.207-7.029-5.593-11.188-7.06V286c0-5.522-4.478-10-10-10s-10,4.478-10,10v1.72
	c-11.639,4.128-20,15.243-20,28.28c0,16.542,13.458,30,30,30c5.514,0,10,4.486,10,10s-4.486,10-10,10
	c-2.672,0-5.183-1.04-7.07-2.929c-3.905-3.904-10.237-3.904-14.143-0.002c-3.905,3.905-3.906,10.236-0.002,14.143
	c3.22,3.22,7.043,5.615,11.215,7.086V386c0,5.522,4.478,10,10,10s10-4.478,10-10v-1.72c11.639-4.128,20-15.243,20-28.28
	C269.555,339.458,256.097,326,239.555,326z"/>
<g>
</g>
<g>
</g>
<g>
</g>
<g>
</g>
<g>
</g>
<g>
</g>
<g>
</g>
<g>
</g>
<g>
</g>
<g>
</g>
<g>
</g>
<g>
</g>
<g>
</g>
<g>
</g>
<g>
</g>
</svg>
