<?xml version="1.0" encoding="iso-8859-1"?>
<!-- Generator: Adobe Illustrator 19.0.0, SVG Export Plug-In . SVG Version: 6.00 Build 0)  -->
<svg xmlns="http://www.w3.org/2000/svg" xmlns:xlink="http://www.w3.org/1999/xlink" version="1.1" id="Layer_1" x="0px" y="0px" viewBox="0 0 512 512" style="enable-background:new 0 0 512 512;" xml:space="preserve" width="512" height="512">
<g>
	<rect y="121" style="fill:#61729B;" width="512" height="391"/>
	<rect x="286" y="121" style="fill:#47568C;" width="226" height="391"/>
	<rect x="120" y="181" style="fill:#E0F4FF;" width="332" height="271"/>
	<rect x="286" y="181" style="fill:#BBDCFF;" width="166" height="271"/>
	<rect x="60" y="181" style="fill:#979FEF;" width="30" height="30"/>
	<rect x="60" y="241" style="fill:#979FEF;" width="30" height="30"/>
	<rect x="60" y="301" style="fill:#979FEF;" width="30" height="151"/>
	<polygon style="fill:#61729B;" points="331,0 331,60 286,90 241,60 241,0  "/>
	<polygon style="fill:#47568C;" points="331,0 331,60 286,90 286,0  "/>
	<polygon style="fill:#979FEF;" points="331,60 331,286 286,361 241,286 241,60  "/>
	<polygon style="fill:#737EE6;" points="331,60 331,286 286,361 286,60  "/>
</g>















</svg>
