<?xml version="1.0" encoding="iso-8859-1"?>
<!-- Generator: Adobe Illustrator 19.0.0, SVG Export Plug-In . SVG Version: 6.00 Build 0)  -->
<svg version="1.1" id="Capa_1" xmlns="http://www.w3.org/2000/svg" xmlns:xlink="http://www.w3.org/1999/xlink" x="0px" y="0px"
	 viewBox="0 0 512 512" style="enable-background:new 0 0 512 512;" xml:space="preserve">
<g>
	<path style="fill:#EAC092;" d="M321.259,364.026l81.673,24.802c16.179-45.897,20.323-29.977,81.293-99.866
		c7.186-9.077,21.055-30.856,17.082-59.898c-0.002-0.016-0.004-0.041-0.005-0.057L492.655,52.71
		c-0.809-5.897-7.065-36.304-36.601-34.029"/>
	<path style="fill:#EAC092;" d="M55.946,18.68C26.41,16.405,20.155,46.811,19.345,52.709l-8.646,176.297
		c-0.001,0.015-0.004,0.041-0.005,0.057c-3.972,29.042,9.895,50.821,17.082,59.898c60.97,69.888,65.114,53.97,81.293,99.866
		l81.673-24.802"/>
</g>
<path style="fill:#26CFAD;" d="M61.533,12.846v214.199h29.826l-20.68-30.116c-9.487-14.741-5.228-34.381,9.512-43.868
	c14.741-9.486,34.381-5.228,46.856,11.176l45.031,62.808h167.841l45.031-62.808c12.474-16.404,32.115-20.663,46.856-11.176
	c14.741,9.487,19,29.127,9.512,43.868l-20.68,30.116h29.826V12.846H61.533z"/>
<g>
	<path style="fill:#00B192;" d="M61.533,82.855V12.846h70.008C131.542,51.454,100.14,82.855,61.533,82.855z"/>
	<path style="fill:#00B192;" d="M380.458,12.846h70.008v70.008C411.859,82.855,380.458,51.454,380.458,12.846z"/>
	<path style="fill:#00B192;" d="M256,24.329c52.724,0,95.617,42.895,95.617,95.617c0,52.724-42.893,95.617-95.617,95.617
		s-95.617-42.894-95.617-95.617C160.382,67.223,203.275,24.329,256,24.329z"/>
</g>
<circle style="fill:#FFD36C;" cx="255.999" cy="119.944" r="49.689"/>
<path d="M256,179.635c-32.912,0-59.688-26.776-59.688-59.689c0-32.912,26.776-59.689,59.688-59.689s59.688,26.776,59.688,59.689
	S288.912,179.635,256,179.635z M256,80.258c-21.884,0-39.687,17.804-39.687,39.688s17.805,39.688,39.687,39.688
	s39.687-17.805,39.687-39.688S277.884,80.258,256,80.258z"/>
<g>
	<path style="fill:#FEDBAB;" d="M167.31,371.14l37.19-11.293c15.469-16.051,29.854-45.207,21.861-71.532
		c-12.66-41.692-46.568-50.516-46.574-50.518l-52.74-73.561c-12.473-16.404-32.114-20.662-46.855-11.175l0,0
		c-14.741,9.487-19,29.127-9.512,43.868l57.371,83.553"/>
</g>
<path d="M150.916,323.782c-0.65,0-1.311-0.07-1.95-0.2c-0.64-0.13-1.27-0.32-1.88-0.57c-0.6-0.25-1.18-0.56-1.72-0.92
	c-0.551-0.36-1.061-0.78-1.52-1.24c-0.46-0.46-0.88-0.97-1.25-1.52c-0.359-0.54-0.67-1.12-0.92-1.73c-0.24-0.6-0.439-1.23-0.57-1.87
	c-0.13-0.64-0.189-1.3-0.189-1.95c0-0.65,0.06-1.31,0.189-1.95c0.131-0.64,0.33-1.27,0.57-1.88c0.25-0.6,0.561-1.18,0.92-1.72
	c0.37-0.55,0.79-1.06,1.25-1.52c0.46-0.46,0.97-0.88,1.52-1.25c0.54-0.36,1.12-0.67,1.72-0.92c0.61-0.25,1.24-0.44,1.88-0.56
	c1.28-0.26,2.61-0.27,3.9,0c0.64,0.12,1.27,0.31,1.87,0.56c0.609,0.25,1.189,0.56,1.73,0.92c0.55,0.37,1.061,0.79,1.52,1.25
	c0.46,0.46,0.88,0.97,1.239,1.52c0.36,0.54,0.67,1.12,0.92,1.72c0.25,0.61,0.44,1.24,0.57,1.88c0.13,0.64,0.2,1.3,0.2,1.95
	c0,0.65-0.07,1.31-0.2,1.95c-0.13,0.64-0.32,1.27-0.57,1.87c-0.25,0.61-0.56,1.19-0.92,1.73c-0.359,0.55-0.779,1.06-1.239,1.52
	c-0.46,0.46-0.971,0.88-1.52,1.24c-0.54,0.36-1.12,0.67-1.73,0.92c-0.601,0.25-1.23,0.44-1.87,0.57
	C152.225,323.712,151.565,323.782,150.916,323.782z"/>
<rect x="136.026" y="337.904" transform="matrix(0.2906 0.9568 -0.9568 0.2906 489.6287 131.0745)" style="fill:#EAECF0;" width="40.785" height="115.67"/>
<rect x="130.038" y="380.92" transform="matrix(0.2906 0.9568 -0.9568 0.2906 544.3782 163.3227)" style="fill:#3688C8;" width="64.016" height="135.732"/>
<g>
	<path style="fill:#FEDBAB;" d="M383.948,280.482l57.371-83.553c9.487-14.741,5.228-34.381-9.512-43.868l0,0
		c-14.741-9.486-34.381-5.228-46.856,11.176l-52.74,73.561c-0.005,0.001-33.912,8.825-46.574,50.518
		c-7.994,26.325,6.392,55.481,21.861,71.532l37.19,11.293"/>
</g>
<path d="M361.084,323.782c-0.65,0-1.311-0.07-1.95-0.2c-0.64-0.12-1.271-0.32-1.87-0.57c-0.61-0.25-1.19-0.56-1.729-0.92
	c-0.551-0.36-1.061-0.78-1.521-1.24c-1.86-1.86-2.93-4.44-2.93-7.07c0-0.65,0.069-1.31,0.2-1.96c0.119-0.63,0.319-1.26,0.569-1.87
	c0.25-0.6,0.561-1.18,0.92-1.72c0.36-0.55,0.78-1.06,1.24-1.52c0.46-0.46,0.97-0.88,1.521-1.25c0.539-0.36,1.119-0.67,1.729-0.92
	c0.6-0.25,1.23-0.44,1.87-0.57c1.29-0.26,2.61-0.26,3.9,0c0.64,0.13,1.27,0.32,1.88,0.57c0.6,0.25,1.18,0.56,1.72,0.92
	c0.55,0.37,1.06,0.79,1.52,1.25c0.46,0.46,0.881,0.97,1.25,1.52c0.36,0.54,0.66,1.12,0.91,1.72c0.26,0.61,0.45,1.24,0.58,1.87
	c0.13,0.65,0.19,1.31,0.19,1.96c0,2.63-1.07,5.21-2.931,7.07c-0.46,0.46-0.97,0.88-1.52,1.24c-0.54,0.36-1.12,0.67-1.72,0.92
	c-0.61,0.25-1.24,0.45-1.88,0.57C362.393,323.712,361.733,323.782,361.084,323.782z"/>
<rect x="335.235" y="337.929" transform="matrix(-0.2906 0.9568 -0.9568 -0.2906 837.6536 170.485)" style="fill:#EAECF0;" width="40.785" height="115.67"/>
<rect x="317.989" y="380.936" transform="matrix(-0.2906 0.9568 -0.9568 -0.2906 881.136 244.3234)" style="fill:#3688C8;" width="64.016" height="135.732"/>
<path d="M511.271,228.125l-8.626-175.906c-0.015-0.291-0.042-0.582-0.081-0.87c-2.232-16.252-13.818-42.653-43.063-42.795
	c-1.607-3.374-5.048-5.707-9.034-5.707H61.533c-3.986,0-7.428,2.333-9.034,5.708C23.264,8.701,11.667,35.098,9.436,51.349
	c-0.039,0.289-0.066,0.579-0.081,0.87L0.729,228.125c-4.36,33.091,11.96,57.892,19.205,67.042c0.099,0.125,0.201,0.247,0.306,0.367
	c24.22,27.763,39.936,42.49,50.335,52.234c13.519,12.667,18.575,17.406,25.415,34.579l-3.75,1.139
	c-2.538,0.771-4.666,2.518-5.915,4.857c-1.25,2.339-1.519,5.08-0.748,7.617l8.944,29.454l-9.626,2.923
	c-5.285,1.604-8.268,7.19-6.663,12.474l18.599,61.246c0.771,2.538,2.517,4.665,4.857,5.915c1.463,0.781,3.082,1.179,4.711,1.179
	c0.976,0,1.955-0.142,2.905-0.432l129.871-39.437c5.285-1.604,8.268-7.189,6.663-12.474l-29.071-95.734
	c15.991-19.564,27.299-48.88,19.164-75.665c-7.785-25.638-22.834-40.302-35.017-48.364h110.174
	c-12.183,8.062-27.232,22.726-35.017,48.364c-8.134,26.785,3.173,56.101,19.164,75.665l-29.071,95.734
	c-1.604,5.285,1.378,10.87,6.663,12.474l129.871,39.437c0.95,0.289,1.93,0.432,2.905,0.432c1.629,0,3.248-0.398,4.711-1.179
	c2.34-1.25,4.087-3.377,4.857-5.915l18.599-61.246c1.605-5.285-1.378-10.87-6.663-12.474l-9.626-2.923l8.944-29.454
	c0.771-2.538,0.502-5.278-0.748-7.617c-1.249-2.339-3.377-4.086-5.915-4.857l-3.75-1.139c6.841-17.173,11.896-21.911,25.415-34.579
	c10.398-9.744,26.115-24.471,50.335-52.234c0.104-0.12,0.207-0.242,0.306-0.367C499.311,286.017,515.631,261.217,511.271,228.125z
	 M334.786,217.046h-37.232c37.638-16.169,64.064-53.606,64.064-97.098c0-43.494-26.426-80.931-64.065-97.099h73.528
	c4.526,36.138,33.248,64.86,69.386,69.386v54.731c-1.039-0.816-2.122-1.588-3.247-2.312c-19.432-12.503-44.759-6.811-60.228,13.531
	c-0.057,0.075-0.112,0.15-0.167,0.227L334.786,217.046z M135.175,158.411c-0.055-0.076-0.11-0.152-0.167-0.227
	c-15.47-20.344-40.8-26.037-60.228-13.531c-1.125,0.724-2.208,1.496-3.247,2.312V92.233c36.138-4.526,64.86-33.248,69.386-69.386
	h73.528c-37.639,16.169-64.065,53.606-64.065,97.099s26.426,80.93,64.064,97.098h-37.232L135.175,158.411z M256,34.329
	c47.21,0,85.617,38.407,85.617,85.617S303.21,205.563,256,205.563s-85.617-38.407-85.617-85.617
	C170.382,72.737,208.79,34.329,256,34.329z M440.466,22.847v49.175c-25.091-4.228-44.947-24.084-49.175-49.175
	C391.292,22.847,440.466,22.847,440.466,22.847z M71.533,22.847h49.175c-4.228,25.091-24.084,44.947-49.175,49.175
	C71.533,72.021,71.533,22.847,71.533,22.847z M199.157,371.921l6.038,19.885l-91.537,27.797l-6.038-19.885L199.157,371.921z
	 M113.061,486.678l-12.786-42.108l110.733-33.626l12.786,42.107L113.061,486.678z M216.793,291.221
	c6.307,20.77-4.532,45.07-17.777,59.839l-83.845,25.461c-8.925-22.737-16.029-29.394-30.92-43.348
	c-10.687-10.014-25.314-23.721-48.777-50.602c-5.754-7.323-18.356-26.688-14.872-52.155c0.022-0.167,0.041-0.334,0.056-0.502
	c0.008-0.087,0.015-0.185,0.021-0.265c0.003-0.052,0.006-0.103,0.009-0.154l8.622-175.83c0.751-4.989,4.773-24.025,22.224-25.057
	v198.437c0,5.523,4.478,10,10,10h24.562l33.712,49.097c3.128,4.553,9.353,5.707,13.905,2.583c4.554-3.126,5.71-9.352,2.584-13.904
	l-57.279-83.418c-6.392-10.067-3.453-23.469,6.589-29.932c10.553-6.793,24.272-3.207,33.401,8.713l52.654,73.441
	c1.357,1.893,3.287,3.241,5.54,3.833C178.373,247.781,206.028,255.775,216.793,291.221z M312.843,371.921l91.537,27.797
	l-6.038,19.885l-91.537-27.797L312.843,371.921z M398.938,486.678l-110.732-33.627l12.786-42.107l110.732,33.626L398.938,486.678z
	 M476.526,282.573c-23.463,26.88-38.09,40.587-48.777,50.602c-14.892,13.953-21.995,20.611-30.92,43.348l-83.845-25.461
	c-13.244-14.771-24.084-39.07-17.777-59.839c10.764-35.447,38.419-43.441,39.544-43.752c2.253-0.592,4.23-1.952,5.587-3.845
	l52.654-73.441c9.128-11.92,22.85-15.507,33.401-8.713c10.042,6.462,12.98,19.864,6.589,29.932l-57.279,83.418
	c-3.126,4.553-1.97,10.778,2.584,13.904c4.553,3.127,10.778,1.97,13.904-2.583l33.712-49.097h24.562c5.522,0,10-4.477,10-10V28.611
	c17.454,1.039,21.474,20.066,22.224,25.055l8.622,175.83c0.003,0.051,0.006,0.103,0.009,0.154c0.006,0.08,0.013,0.178,0.021,0.266
	c0.015,0.167,0.033,0.335,0.056,0.502C494.882,255.885,482.28,275.25,476.526,282.573z"/>
<g>
</g>
<g>
</g>
<g>
</g>
<g>
</g>
<g>
</g>
<g>
</g>
<g>
</g>
<g>
</g>
<g>
</g>
<g>
</g>
<g>
</g>
<g>
</g>
<g>
</g>
<g>
</g>
<g>
</g>
</svg>
