<?xml version="1.0" encoding="iso-8859-1"?>
<!-- Generator: Adobe Illustrator 22.1.0, SVG Export Plug-In . SVG Version: 6.00 Build 0)  -->
<svg xmlns="http://www.w3.org/2000/svg" xmlns:xlink="http://www.w3.org/1999/xlink" version="1.1" id="Layer_1_1_" x="0px" y="0px" viewBox="0 0 64 64" style="enable-background:new 0 0 64 64;" xml:space="preserve" width="512" height="512">
<linearGradient id="SVGID_1_" gradientUnits="userSpaceOnUse" x1="32" y1="63" x2="32" y2="1">
	<stop offset="0" style="stop-color:#9F2FFF"/>
	<stop offset="1" style="stop-color:#0BB1D3"/>
</linearGradient>
<path style="fill:url(#SVGID_1_);" d="M13,51h2v2h-2V51z M9,53h2v-2H9V53z M5,53h2v-2H5V53z M63,20v32c0,2.757-2.243,5-5,5H45v4h4v2  H15v-2h4v-4H6c-2.757,0-5-2.243-5-5V20c0-2.757,2.243-5,5-5h4.522c1.617-2.41,4.365-4,7.478-4c0.017,0,0.033,0,0.05,0  C18.582,5.373,23.29,1,29,1c3.432,0,6.637,1.595,8.714,4.301C38.467,5.102,39.232,5,40,5c3.891,0,7.302,2.489,8.522,6.132  c2.514,0.423,4.634,1.863,5.968,3.868H58C60.757,15,63,17.243,63,20z M55.488,17C55.817,17.939,56,18.948,56,20c0,4.963-4.037,9-9,9  h-1v20h15V20c0-1.654-1.346-3-3-3H55.488z M44,17H20v32h24V17z M11,20c0,3.859,3.141,7,7,7V15h28v12h1c3.859,0,7-3.141,7-7  c0-3.636-2.728-6.631-6.345-6.966l-0.704-0.065l-0.174-0.686C45.992,9.173,43.205,7,40,7c-0.788,0-1.576,0.139-2.343,0.412  l-0.736,0.262l-0.433-0.65C34.812,4.504,32.014,3,29,3c-4.963,0-9,4.037-9,9v1.133l-1.124-0.076C18.589,13.021,18.297,13,18,13  C14.141,13,11,16.141,11,20z M3,20v27h12.303L18,48.798V29c-4.963,0-9-4.037-9-9c0-1.053,0.191-2.06,0.525-3H6  C4.346,17,3,18.346,3,20z M61,52v-1H17.697l-3-2H3v3c0,1.654,1.346,3,3,3h15v6h22v-4H23v-2h35C59.654,55,61,53.654,61,52z M22,37  c0-1.987,0.583-3.908,1.687-5.557L23.983,31H26v-6c0-3.309,2.691-6,6-6s6,2.691,6,6v6h2.017l0.297,0.443  C41.417,33.092,42,35.013,42,37c0,5.514-4.486,10-10,10S22,42.514,22,37z M28,31h8v-6c0-2.206-1.794-4-4-4s-4,1.794-4,4V31z M24,37  c0,4.411,3.589,8,8,8s8-3.589,8-8c0-1.414-0.369-2.787-1.072-4H25.072C24.369,34.213,24,35.586,24,37z M29,38c0-1.654,1.346-3,3-3  s3,1.346,3,3c0,1.302-0.839,2.402-2,2.816V43h-2v-2.184C29.839,40.402,29,39.302,29,38z M31,38c0,0.552,0.448,1,1,1s1-0.448,1-1  s-0.448-1-1-1S31,37.448,31,38z"/>
</svg>
