<?xml version="1.0" encoding="iso-8859-1"?>
<!-- Generator: Adobe Illustrator 19.0.0, SVG Export Plug-In . SVG Version: 6.00 Build 0)  -->
<svg version="1.1" id="Layer_1" xmlns="http://www.w3.org/2000/svg" xmlns:xlink="http://www.w3.org/1999/xlink" x="0px" y="0px"
	 viewBox="0 0 512 512" style="enable-background:new 0 0 512 512;" xml:space="preserve">
<path style="fill:#FFBEAB;" d="M59.077,216.615C26.449,216.615,0,243.065,0,275.692s26.449,59.077,59.077,59.077
	c2.36,0,46.361,0,46.361,0V216.615H59.077z"/>
<path style="fill:#F7AF99;" d="M452.923,216.615h-46.361v117.747c0,0,44,0.407,46.361,0.407c32.628,0,59.077-26.449,59.077-59.077
	S485.551,216.615,452.923,216.615z"/>
<path style="fill:#FDCDBF;" d="M59.077,210.051v91.897c0,108.758,88.165,196.923,196.923,196.923L282.256,256L256,13.128
	C147.242,13.128,59.077,101.293,59.077,210.051z"/>
<path style="fill:#FFBEAB;" d="M256,13.128v485.744c108.758,0,196.923-88.165,196.923-196.923v-91.897
	C452.923,101.293,364.758,13.128,256,13.128z"/>
<polygon style="fill:#4C4645;" points="210.051,275.692 170.667,275.692 170.667,256 124.718,256 124.718,216.615 210.051,216.615 
	"/>
<polygon style="fill:#331D17;" points="341.333,275.692 301.949,275.692 301.949,216.615 387.282,216.615 387.282,256 341.333,256 
	"/>
<path style="fill:#F7AF99;" d="M236.308,341.333h-39.385c0,32.575,26.502,59.077,59.077,59.077l13.128-19.692L256,361.026
	C245.142,361.026,236.308,352.192,236.308,341.333z"/>
<path style="fill:#F88A6B;" d="M275.692,341.333c0,10.858-8.834,19.692-19.692,19.692v39.385c32.575,0,59.077-26.502,59.077-59.077
	H275.692z"/>
<g>
</g>
<g>
</g>
<g>
</g>
<g>
</g>
<g>
</g>
<g>
</g>
<g>
</g>
<g>
</g>
<g>
</g>
<g>
</g>
<g>
</g>
<g>
</g>
<g>
</g>
<g>
</g>
<g>
</g>
</svg>
